<mxfile host="app.diagrams.net" modified="2023-08-29T17:18:42.415Z" agent="Mozilla/5.0 (Windows NT 10.0; Win64; x64) AppleWebKit/537.36 (KHTML, like Gecko) Chrome/116.0.0.0 Safari/537.36" etag="cuHN7VfTiIWMV7zGnspn" version="21.6.9" type="device">
  <diagram name="PÃ¡gina-1" id="lQ-_CWVHKCiw_N8Onup3">
    <mxGraphModel dx="1434" dy="758" grid="1" gridSize="10" guides="1" tooltips="1" connect="1" arrows="1" fold="1" page="1" pageScale="1" pageWidth="827" pageHeight="1169" math="0" shadow="0">
      <root>
        <mxCell id="0" />
        <mxCell id="1" parent="0" />
        <mxCell id="fudkjDu3Hi-8wt6hOdGF-5" value="" style="rounded=0;whiteSpace=wrap;html=1;" vertex="1" parent="1">
          <mxGeometry x="86" y="120" width="220" height="840" as="geometry" />
        </mxCell>
        <mxCell id="fudkjDu3Hi-8wt6hOdGF-1" value="Quiz passing process" style="text;strokeColor=none;fillColor=none;html=1;fontSize=24;fontStyle=1;verticalAlign=middle;align=center;" vertex="1" parent="1">
          <mxGeometry x="580" y="30" width="100" height="40" as="geometry" />
        </mxCell>
        <mxCell id="fudkjDu3Hi-8wt6hOdGF-2" value="Project: Educational assessment engine" style="text;align=center;fontStyle=1;verticalAlign=middle;spacingLeft=3;spacingRight=3;strokeColor=none;rotatable=0;points=[[0,0.5],[1,0.5]];portConstraint=eastwest;html=1;" vertex="1" parent="1">
          <mxGeometry x="580" y="60" width="80" height="26" as="geometry" />
        </mxCell>
        <mxCell id="fudkjDu3Hi-8wt6hOdGF-3" style="edgeStyle=orthogonalEdgeStyle;rounded=0;orthogonalLoop=1;jettySize=auto;html=1;exitX=1;exitY=0.5;exitDx=0;exitDy=0;" edge="1" parent="1" source="fudkjDu3Hi-8wt6hOdGF-2" target="fudkjDu3Hi-8wt6hOdGF-2">
          <mxGeometry relative="1" as="geometry" />
        </mxCell>
        <mxCell id="fudkjDu3Hi-8wt6hOdGF-4" value="Teacher" style="text;html=1;strokeColor=none;fillColor=none;align=center;verticalAlign=middle;whiteSpace=wrap;rounded=0;" vertex="1" parent="1">
          <mxGeometry x="156" y="130" width="60" height="30" as="geometry" />
        </mxCell>
        <mxCell id="fudkjDu3Hi-8wt6hOdGF-6" value="" style="rounded=0;whiteSpace=wrap;html=1;" vertex="1" parent="1">
          <mxGeometry x="306" y="120" width="220" height="840" as="geometry" />
        </mxCell>
        <mxCell id="fudkjDu3Hi-8wt6hOdGF-7" value="System" style="text;html=1;strokeColor=none;fillColor=none;align=center;verticalAlign=middle;whiteSpace=wrap;rounded=0;" vertex="1" parent="1">
          <mxGeometry x="376" y="130" width="60" height="30" as="geometry" />
        </mxCell>
        <mxCell id="fudkjDu3Hi-8wt6hOdGF-8" value="" style="rounded=0;whiteSpace=wrap;html=1;" vertex="1" parent="1">
          <mxGeometry x="526" y="120" width="220" height="840" as="geometry" />
        </mxCell>
        <mxCell id="fudkjDu3Hi-8wt6hOdGF-9" value="Student" style="text;html=1;strokeColor=none;fillColor=none;align=center;verticalAlign=middle;whiteSpace=wrap;rounded=0;" vertex="1" parent="1">
          <mxGeometry x="596" y="130" width="60" height="30" as="geometry" />
        </mxCell>
        <mxCell id="fudkjDu3Hi-8wt6hOdGF-10" value="" style="ellipse;html=1;shape=endState;fillColor=#000000;strokeColor=#000000;" vertex="1" parent="1">
          <mxGeometry x="140" y="240" width="30" height="30" as="geometry" />
        </mxCell>
        <mxCell id="fudkjDu3Hi-8wt6hOdGF-11" value="" style="line;strokeWidth=1;fillColor=none;align=left;verticalAlign=middle;spacingTop=-1;spacingLeft=3;spacingRight=3;rotatable=0;labelPosition=right;points=[];portConstraint=eastwest;strokeColor=inherit;" vertex="1" parent="1">
          <mxGeometry x="166" y="251" width="254" height="8" as="geometry" />
        </mxCell>
        <mxCell id="fudkjDu3Hi-8wt6hOdGF-12" value="" style="endArrow=block;html=1;rounded=0;endFill=1;" edge="1" parent="1">
          <mxGeometry width="50" height="50" relative="1" as="geometry">
            <mxPoint x="420" y="256" as="sourcePoint" />
            <mxPoint x="421.49999999999994" y="305" as="targetPoint" />
          </mxGeometry>
        </mxCell>
        <mxCell id="fudkjDu3Hi-8wt6hOdGF-13" value="Generate individual question set" style="rounded=1;whiteSpace=wrap;html=1;" vertex="1" parent="1">
          <mxGeometry x="362" y="305.9999999999999" width="120" height="60" as="geometry" />
        </mxCell>
        <mxCell id="fudkjDu3Hi-8wt6hOdGF-14" value="" style="line;strokeWidth=1;fillColor=none;align=left;verticalAlign=middle;spacingTop=-1;spacingLeft=3;spacingRight=3;rotatable=0;labelPosition=right;points=[];portConstraint=eastwest;strokeColor=inherit;" vertex="1" parent="1">
          <mxGeometry x="483" y="332" width="160" height="8" as="geometry" />
        </mxCell>
        <mxCell id="fudkjDu3Hi-8wt6hOdGF-15" value="" style="endArrow=block;html=1;rounded=0;endFill=1;" edge="1" parent="1">
          <mxGeometry width="50" height="50" relative="1" as="geometry">
            <mxPoint x="643" y="337" as="sourcePoint" />
            <mxPoint x="644.5" y="386" as="targetPoint" />
          </mxGeometry>
        </mxCell>
        <mxCell id="fudkjDu3Hi-8wt6hOdGF-16" value="Confirm" style="rounded=1;whiteSpace=wrap;html=1;" vertex="1" parent="1">
          <mxGeometry x="590" y="387.9999999999999" width="120" height="60" as="geometry" />
        </mxCell>
        <mxCell id="fudkjDu3Hi-8wt6hOdGF-17" value="" style="endArrow=block;html=1;rounded=0;endFill=1;entryX=0.7;entryY=0.522;entryDx=0;entryDy=0;entryPerimeter=0;exitX=0;exitY=0.5;exitDx=0;exitDy=0;" edge="1" parent="1" source="fudkjDu3Hi-8wt6hOdGF-16">
          <mxGeometry width="50" height="50" relative="1" as="geometry">
            <mxPoint x="577" y="417.5" as="sourcePoint" />
            <mxPoint x="447" y="417.53999999999996" as="targetPoint" />
          </mxGeometry>
        </mxCell>
        <mxCell id="fudkjDu3Hi-8wt6hOdGF-18" value="" style="rhombus;whiteSpace=wrap;html=1;" vertex="1" parent="1">
          <mxGeometry x="407" y="398" width="40" height="40" as="geometry" />
        </mxCell>
        <mxCell id="fudkjDu3Hi-8wt6hOdGF-19" value="" style="endArrow=block;html=1;rounded=0;endFill=1;entryX=0.556;entryY=0;entryDx=0;entryDy=0;entryPerimeter=0;" edge="1" parent="1" target="fudkjDu3Hi-8wt6hOdGF-20">
          <mxGeometry width="50" height="50" relative="1" as="geometry">
            <mxPoint x="427.25" y="438" as="sourcePoint" />
            <mxPoint x="428.74999999999994" y="487" as="targetPoint" />
          </mxGeometry>
        </mxCell>
        <mxCell id="fudkjDu3Hi-8wt6hOdGF-20" value="Ask Question" style="rounded=1;whiteSpace=wrap;html=1;" vertex="1" parent="1">
          <mxGeometry x="362" y="489.9999999999999" width="120" height="60" as="geometry" />
        </mxCell>
        <mxCell id="fudkjDu3Hi-8wt6hOdGF-21" value="" style="line;strokeWidth=1;fillColor=none;align=left;verticalAlign=middle;spacingTop=-1;spacingLeft=3;spacingRight=3;rotatable=0;labelPosition=right;points=[];portConstraint=eastwest;strokeColor=inherit;" vertex="1" parent="1">
          <mxGeometry x="483" y="516" width="160" height="8" as="geometry" />
        </mxCell>
        <mxCell id="fudkjDu3Hi-8wt6hOdGF-22" value="" style="endArrow=block;html=1;rounded=0;endFill=1;" edge="1" parent="1">
          <mxGeometry width="50" height="50" relative="1" as="geometry">
            <mxPoint x="644" y="520" as="sourcePoint" />
            <mxPoint x="645.5" y="569" as="targetPoint" />
          </mxGeometry>
        </mxCell>
        <mxCell id="fudkjDu3Hi-8wt6hOdGF-23" value="Answer" style="rounded=1;whiteSpace=wrap;html=1;" vertex="1" parent="1">
          <mxGeometry x="590" y="569.9999999999999" width="120" height="60" as="geometry" />
        </mxCell>
        <mxCell id="fudkjDu3Hi-8wt6hOdGF-24" value="" style="endArrow=block;html=1;rounded=0;endFill=1;" edge="1" parent="1">
          <mxGeometry width="50" height="50" relative="1" as="geometry">
            <mxPoint x="646" y="630" as="sourcePoint" />
            <mxPoint x="647.5" y="679" as="targetPoint" />
          </mxGeometry>
        </mxCell>
        <mxCell id="fudkjDu3Hi-8wt6hOdGF-25" value="" style="rhombus;whiteSpace=wrap;html=1;" vertex="1" parent="1">
          <mxGeometry x="628" y="679" width="40" height="40" as="geometry" />
        </mxCell>
        <mxCell id="fudkjDu3Hi-8wt6hOdGF-26" value="" style="endArrow=none;html=1;rounded=0;" edge="1" parent="1">
          <mxGeometry width="50" height="50" relative="1" as="geometry">
            <mxPoint x="668" y="698.5" as="sourcePoint" />
            <mxPoint x="700" y="699" as="targetPoint" />
          </mxGeometry>
        </mxCell>
        <mxCell id="fudkjDu3Hi-8wt6hOdGF-27" value="&lt;font style=&quot;font-size: 12px;&quot;&gt;Yes&lt;/font&gt;" style="edgeLabel;html=1;align=center;verticalAlign=middle;resizable=0;points=[];" vertex="1" connectable="0" parent="fudkjDu3Hi-8wt6hOdGF-26">
          <mxGeometry x="-0.0632" y="1" relative="1" as="geometry">
            <mxPoint as="offset" />
          </mxGeometry>
        </mxCell>
        <mxCell id="fudkjDu3Hi-8wt6hOdGF-28" value="" style="endArrow=none;html=1;rounded=0;" edge="1" parent="1">
          <mxGeometry width="50" height="50" relative="1" as="geometry">
            <mxPoint x="700" y="760" as="sourcePoint" />
            <mxPoint x="700" y="700" as="targetPoint" />
          </mxGeometry>
        </mxCell>
        <mxCell id="fudkjDu3Hi-8wt6hOdGF-30" value="" style="endArrow=none;html=1;rounded=0;" edge="1" parent="1">
          <mxGeometry width="50" height="50" relative="1" as="geometry">
            <mxPoint x="177" y="756.5" as="sourcePoint" />
            <mxPoint x="350" y="756.5" as="targetPoint" />
          </mxGeometry>
        </mxCell>
        <mxCell id="fudkjDu3Hi-8wt6hOdGF-32" value="Assume Results" style="rounded=1;whiteSpace=wrap;html=1;" vertex="1" parent="1">
          <mxGeometry x="350" y="726.9999999999999" width="120" height="60" as="geometry" />
        </mxCell>
        <mxCell id="fudkjDu3Hi-8wt6hOdGF-33" value="" style="endArrow=block;html=1;rounded=0;endFill=1;" edge="1" parent="1">
          <mxGeometry width="50" height="50" relative="1" as="geometry">
            <mxPoint x="699" y="760" as="sourcePoint" />
            <mxPoint x="470" y="760" as="targetPoint" />
          </mxGeometry>
        </mxCell>
        <mxCell id="fudkjDu3Hi-8wt6hOdGF-34" value="Was it last?" style="text;html=1;strokeColor=none;fillColor=none;align=center;verticalAlign=middle;whiteSpace=wrap;rounded=0;" vertex="1" parent="1">
          <mxGeometry x="620" y="719" width="60" height="30" as="geometry" />
        </mxCell>
        <mxCell id="fudkjDu3Hi-8wt6hOdGF-37" value="" style="endArrow=block;html=1;rounded=0;endFill=1;" edge="1" parent="1">
          <mxGeometry width="50" height="50" relative="1" as="geometry">
            <mxPoint x="177" y="756" as="sourcePoint" />
            <mxPoint x="177" y="816" as="targetPoint" />
          </mxGeometry>
        </mxCell>
        <mxCell id="fudkjDu3Hi-8wt6hOdGF-38" value="Approve Results" style="rounded=1;whiteSpace=wrap;html=1;" vertex="1" parent="1">
          <mxGeometry x="114" y="816.9999999999999" width="120" height="60" as="geometry" />
        </mxCell>
        <mxCell id="fudkjDu3Hi-8wt6hOdGF-39" value="" style="endArrow=block;html=1;rounded=0;endFill=1;" edge="1" parent="1" target="fudkjDu3Hi-8wt6hOdGF-40">
          <mxGeometry width="50" height="50" relative="1" as="geometry">
            <mxPoint x="234" y="846.5" as="sourcePoint" />
            <mxPoint x="394" y="846.5" as="targetPoint" />
          </mxGeometry>
        </mxCell>
        <mxCell id="fudkjDu3Hi-8wt6hOdGF-40" value="" style="ellipse;html=1;shape=endState;fillColor=#000000;strokeColor=#000000;" vertex="1" parent="1">
          <mxGeometry x="379" y="831.5" width="30" height="30" as="geometry" />
        </mxCell>
        <mxCell id="fudkjDu3Hi-8wt6hOdGF-44" value="" style="endArrow=none;html=1;rounded=0;" edge="1" parent="1">
          <mxGeometry width="50" height="50" relative="1" as="geometry">
            <mxPoint x="329" y="698.5" as="sourcePoint" />
            <mxPoint x="628" y="698.5" as="targetPoint" />
          </mxGeometry>
        </mxCell>
        <mxCell id="fudkjDu3Hi-8wt6hOdGF-45" value="&lt;font style=&quot;font-size: 12px;&quot;&gt;No&lt;/font&gt;" style="edgeLabel;html=1;align=center;verticalAlign=middle;resizable=0;points=[];" vertex="1" connectable="0" parent="fudkjDu3Hi-8wt6hOdGF-44">
          <mxGeometry x="0.1139" y="-3" relative="1" as="geometry">
            <mxPoint y="-4" as="offset" />
          </mxGeometry>
        </mxCell>
        <mxCell id="fudkjDu3Hi-8wt6hOdGF-46" value="" style="endArrow=none;html=1;rounded=0;" edge="1" parent="1">
          <mxGeometry width="50" height="50" relative="1" as="geometry">
            <mxPoint x="330" y="698" as="sourcePoint" />
            <mxPoint x="330" y="419" as="targetPoint" />
          </mxGeometry>
        </mxCell>
        <mxCell id="fudkjDu3Hi-8wt6hOdGF-47" value="" style="endArrow=block;html=1;rounded=0;endFill=1;" edge="1" parent="1">
          <mxGeometry width="50" height="50" relative="1" as="geometry">
            <mxPoint x="328" y="418" as="sourcePoint" />
            <mxPoint x="407" y="417.5" as="targetPoint" />
          </mxGeometry>
        </mxCell>
        <mxCell id="fudkjDu3Hi-8wt6hOdGF-48" value="Stores result" style="text;html=1;strokeColor=none;fillColor=none;align=center;verticalAlign=middle;whiteSpace=wrap;rounded=0;" vertex="1" parent="1">
          <mxGeometry x="362" y="861.5" width="76" height="30" as="geometry" />
        </mxCell>
        <mxCell id="fudkjDu3Hi-8wt6hOdGF-49" value="Assign Test/Quiz" style="text;html=1;strokeColor=none;fillColor=none;align=center;verticalAlign=middle;whiteSpace=wrap;rounded=0;" vertex="1" parent="1">
          <mxGeometry x="125" y="276" width="95" height="30" as="geometry" />
        </mxCell>
      </root>
    </mxGraphModel>
  </diagram>
</mxfile>
